<mxfile host="app.diagrams.net" agent="Mozilla/5.0 (Windows NT 10.0; Win64; x64) AppleWebKit/537.36 (KHTML, like Gecko) Chrome/131.0.0.0 Safari/537.36" version="26.0.6">
  <diagram name="Page-1" id="bDvcypGX-Qz7ygBv5LlQ">
    <mxGraphModel dx="1050" dy="530" grid="1" gridSize="10" guides="1" tooltips="1" connect="1" arrows="1" fold="1" page="1" pageScale="1" pageWidth="850" pageHeight="1100" math="0" shadow="0">
      <root>
        <mxCell id="0" />
        <mxCell id="1" parent="0" />
        <mxCell id="ve5tehwe5ekPfCzmSLh6-1" value="" style="verticalLabelPosition=bottom;verticalAlign=top;html=1;shape=mxgraph.basic.patternFillRect;fillStyle=diag;step=5;fillStrokeWidth=0.2;fillStrokeColor=#dddddd;" vertex="1" parent="1">
          <mxGeometry y="30" width="850" height="60" as="geometry" />
        </mxCell>
        <mxCell id="ve5tehwe5ekPfCzmSLh6-2" value="Nav Bar" style="text;html=1;align=center;verticalAlign=middle;whiteSpace=wrap;rounded=0;fontSize=28;" vertex="1" parent="1">
          <mxGeometry x="340" y="60" width="170" height="30" as="geometry" />
        </mxCell>
        <mxCell id="ve5tehwe5ekPfCzmSLh6-4" value="" style="ellipse;whiteSpace=wrap;html=1;aspect=fixed;" vertex="1" parent="1">
          <mxGeometry x="30" y="20" width="80" height="80" as="geometry" />
        </mxCell>
        <mxCell id="ve5tehwe5ekPfCzmSLh6-5" value="Logo" style="text;html=1;align=center;verticalAlign=middle;whiteSpace=wrap;rounded=0;" vertex="1" parent="1">
          <mxGeometry x="40" y="45" width="60" height="30" as="geometry" />
        </mxCell>
        <mxCell id="ve5tehwe5ekPfCzmSLh6-6" value="CafÃ© Italia" style="text;html=1;align=center;verticalAlign=middle;whiteSpace=wrap;rounded=0;fontSize=25;" vertex="1" parent="1">
          <mxGeometry x="130" y="45" width="190" height="30" as="geometry" />
        </mxCell>
        <mxCell id="ve5tehwe5ekPfCzmSLh6-8" value="" style="rounded=1;whiteSpace=wrap;html=1;" vertex="1" parent="1">
          <mxGeometry x="490" y="40" width="100" height="40" as="geometry" />
        </mxCell>
        <mxCell id="ve5tehwe5ekPfCzmSLh6-9" value="" style="rounded=1;whiteSpace=wrap;html=1;" vertex="1" parent="1">
          <mxGeometry x="610" y="40" width="100" height="40" as="geometry" />
        </mxCell>
        <mxCell id="ve5tehwe5ekPfCzmSLh6-10" value="" style="rounded=1;whiteSpace=wrap;html=1;" vertex="1" parent="1">
          <mxGeometry x="740" y="40" width="100" height="40" as="geometry" />
        </mxCell>
        <mxCell id="ve5tehwe5ekPfCzmSLh6-11" value="Home" style="text;html=1;align=center;verticalAlign=middle;whiteSpace=wrap;rounded=0;" vertex="1" parent="1">
          <mxGeometry x="510" y="45" width="60" height="30" as="geometry" />
        </mxCell>
        <mxCell id="ve5tehwe5ekPfCzmSLh6-12" value="Menu" style="text;html=1;align=center;verticalAlign=middle;whiteSpace=wrap;rounded=0;" vertex="1" parent="1">
          <mxGeometry x="630" y="45" width="60" height="30" as="geometry" />
        </mxCell>
        <mxCell id="ve5tehwe5ekPfCzmSLh6-13" value="Coupons" style="text;html=1;align=center;verticalAlign=middle;whiteSpace=wrap;rounded=0;" vertex="1" parent="1">
          <mxGeometry x="760" y="45" width="60" height="30" as="geometry" />
        </mxCell>
        <mxCell id="ve5tehwe5ekPfCzmSLh6-35" value="&lt;h1 style=&quot;margin-top: 0px;&quot;&gt;&amp;nbsp; &amp;nbsp; &amp;nbsp; &amp;nbsp; &amp;nbsp; &amp;nbsp; &amp;nbsp; &amp;nbsp; &amp;nbsp; &amp;nbsp; &amp;nbsp; &amp;nbsp; Menu&lt;/h1&gt;" style="text;html=1;whiteSpace=wrap;overflow=hidden;rounded=0;fontSize=26;" vertex="1" parent="1">
          <mxGeometry y="120" width="830" height="80" as="geometry" />
        </mxCell>
        <mxCell id="ve5tehwe5ekPfCzmSLh6-36" value="&lt;h1 style=&quot;margin-top: 0px;&quot;&gt;&amp;nbsp; &amp;nbsp; &amp;nbsp; Beverages&lt;/h1&gt;&lt;p&gt;&lt;br&gt;&lt;/p&gt;" style="text;html=1;whiteSpace=wrap;overflow=hidden;rounded=0;" vertex="1" parent="1">
          <mxGeometry y="200" width="840" height="50" as="geometry" />
        </mxCell>
        <mxCell id="ve5tehwe5ekPfCzmSLh6-37" value="" style="rounded=1;whiteSpace=wrap;html=1;" vertex="1" parent="1">
          <mxGeometry x="40" y="280" width="200" height="170" as="geometry" />
        </mxCell>
        <mxCell id="ve5tehwe5ekPfCzmSLh6-38" value="" style="rounded=1;whiteSpace=wrap;html=1;" vertex="1" parent="1">
          <mxGeometry x="280" y="280" width="200" height="170" as="geometry" />
        </mxCell>
        <mxCell id="ve5tehwe5ekPfCzmSLh6-39" value="" style="rounded=1;whiteSpace=wrap;html=1;" vertex="1" parent="1">
          <mxGeometry x="520" y="280" width="200" height="170" as="geometry" />
        </mxCell>
        <mxCell id="ve5tehwe5ekPfCzmSLh6-40" value="" style="rounded=1;whiteSpace=wrap;html=1;" vertex="1" parent="1">
          <mxGeometry x="40" y="480" width="200" height="170" as="geometry" />
        </mxCell>
        <mxCell id="ve5tehwe5ekPfCzmSLh6-41" value="" style="rounded=1;whiteSpace=wrap;html=1;" vertex="1" parent="1">
          <mxGeometry x="280" y="480" width="200" height="170" as="geometry" />
        </mxCell>
        <mxCell id="ve5tehwe5ekPfCzmSLh6-42" value="" style="rounded=1;whiteSpace=wrap;html=1;" vertex="1" parent="1">
          <mxGeometry x="520" y="480" width="200" height="170" as="geometry" />
        </mxCell>
        <mxCell id="ve5tehwe5ekPfCzmSLh6-43" value="" style="rounded=1;whiteSpace=wrap;html=1;" vertex="1" parent="1">
          <mxGeometry x="40" y="680" width="200" height="170" as="geometry" />
        </mxCell>
        <mxCell id="ve5tehwe5ekPfCzmSLh6-44" value="" style="rounded=1;whiteSpace=wrap;html=1;" vertex="1" parent="1">
          <mxGeometry x="280" y="680" width="200" height="170" as="geometry" />
        </mxCell>
        <mxCell id="ve5tehwe5ekPfCzmSLh6-45" value="" style="rounded=1;whiteSpace=wrap;html=1;" vertex="1" parent="1">
          <mxGeometry x="520" y="680" width="200" height="170" as="geometry" />
        </mxCell>
        <mxCell id="ve5tehwe5ekPfCzmSLh6-46" value="&lt;h1 style=&quot;margin-top: 0px;&quot;&gt;&amp;nbsp; &amp;nbsp;Sandwiches&lt;/h1&gt;" style="text;html=1;whiteSpace=wrap;overflow=hidden;rounded=0;" vertex="1" parent="1">
          <mxGeometry x="20" y="880" width="820" height="50" as="geometry" />
        </mxCell>
        <mxCell id="ve5tehwe5ekPfCzmSLh6-47" value="" style="rounded=1;whiteSpace=wrap;html=1;" vertex="1" parent="1">
          <mxGeometry x="40" y="950" width="200" height="170" as="geometry" />
        </mxCell>
        <mxCell id="ve5tehwe5ekPfCzmSLh6-48" value="" style="rounded=1;whiteSpace=wrap;html=1;" vertex="1" parent="1">
          <mxGeometry x="280" y="950" width="200" height="170" as="geometry" />
        </mxCell>
        <mxCell id="ve5tehwe5ekPfCzmSLh6-49" value="" style="rounded=1;whiteSpace=wrap;html=1;" vertex="1" parent="1">
          <mxGeometry x="520" y="950" width="200" height="170" as="geometry" />
        </mxCell>
        <mxCell id="ve5tehwe5ekPfCzmSLh6-50" value="" style="rounded=1;whiteSpace=wrap;html=1;" vertex="1" parent="1">
          <mxGeometry x="40" y="1160" width="200" height="170" as="geometry" />
        </mxCell>
        <mxCell id="ve5tehwe5ekPfCzmSLh6-51" value="" style="rounded=1;whiteSpace=wrap;html=1;" vertex="1" parent="1">
          <mxGeometry x="280" y="1160" width="200" height="170" as="geometry" />
        </mxCell>
        <mxCell id="ve5tehwe5ekPfCzmSLh6-52" value="" style="rounded=1;whiteSpace=wrap;html=1;" vertex="1" parent="1">
          <mxGeometry x="520" y="1150" width="200" height="170" as="geometry" />
        </mxCell>
        <mxCell id="ve5tehwe5ekPfCzmSLh6-53" value="&lt;h1 style=&quot;margin-top: 0px;&quot;&gt;&amp;nbsp; &amp;nbsp; Pastries&lt;/h1&gt;" style="text;html=1;whiteSpace=wrap;overflow=hidden;rounded=0;" vertex="1" parent="1">
          <mxGeometry x="10" y="1360" width="770" height="50" as="geometry" />
        </mxCell>
        <mxCell id="ve5tehwe5ekPfCzmSLh6-55" value="" style="rounded=1;whiteSpace=wrap;html=1;" vertex="1" parent="1">
          <mxGeometry x="40" y="1440" width="200" height="170" as="geometry" />
        </mxCell>
        <mxCell id="ve5tehwe5ekPfCzmSLh6-56" value="" style="rounded=1;whiteSpace=wrap;html=1;" vertex="1" parent="1">
          <mxGeometry x="280" y="1440" width="200" height="170" as="geometry" />
        </mxCell>
        <mxCell id="ve5tehwe5ekPfCzmSLh6-57" value="" style="rounded=1;whiteSpace=wrap;html=1;" vertex="1" parent="1">
          <mxGeometry x="520" y="1440" width="200" height="170" as="geometry" />
        </mxCell>
        <mxCell id="ve5tehwe5ekPfCzmSLh6-58" value="" style="rounded=1;whiteSpace=wrap;html=1;" vertex="1" parent="1">
          <mxGeometry x="40" y="1640" width="200" height="170" as="geometry" />
        </mxCell>
        <mxCell id="ve5tehwe5ekPfCzmSLh6-59" value="" style="rounded=1;whiteSpace=wrap;html=1;" vertex="1" parent="1">
          <mxGeometry x="280" y="1640" width="200" height="170" as="geometry" />
        </mxCell>
        <mxCell id="ve5tehwe5ekPfCzmSLh6-60" value="" style="rounded=1;whiteSpace=wrap;html=1;" vertex="1" parent="1">
          <mxGeometry x="520" y="1640" width="200" height="170" as="geometry" />
        </mxCell>
      </root>
    </mxGraphModel>
  </diagram>
</mxfile>
